<?xml version="1.0" standalone="no"?><!DOCTYPE svg PUBLIC "-//W3C//DTD SVG 1.1//EN" "http://www.w3.org/Graphics/SVG/1.1/DTD/svg11.dtd"><svg t="1529072278873" class="icon" style="" viewBox="0 0 1024 1024" version="1.1" xmlns="http://www.w3.org/2000/svg" p-id="9557" xmlns:xlink="http://www.w3.org/1999/xlink" width="200" height="200"><defs><style type="text/css"></style></defs><path d="M1024 947.2c-51.2-166.4-179.2-300.8-339.2-358.4-12.8-6.4-25.6 0-32 12.8-6.4 12.8 0 25.6 12.8 32 147.2 51.2 268.8 172.8 307.2 320 0 12.8 12.8 19.2 25.6 19.2 0 0 6.4 0 6.4 0C1017.6 972.8 1024 960 1024 947.2z" p-id="9558" fill="#707070"></path><path d="M339.2 595.2c-166.4 57.6-294.4 185.6-339.2 358.4C0 960 6.4 972.8 19.2 979.2c0 0 6.4 0 6.4 0 12.8 0 19.2-6.4 25.6-19.2 44.8-153.6 160-275.2 307.2-320 12.8-6.4 19.2-19.2 12.8-32C371.2 595.2 352 588.8 339.2 595.2z" p-id="9559" fill="#707070"></path><path d="M512 281.6m-256 0a4 4 0 1 0 512 0 4 4 0 1 0-512 0Z" p-id="9560" fill="#707070"></path><path d="M512 576 428.8 608 492.8 665.6 435.2 921.6 512 998.4 588.8 921.6 531.2 665.6 595.2 608Z" p-id="9561" fill="#707070"></path></svg>