<?xml version="1.0" standalone="no"?><!DOCTYPE svg PUBLIC "-//W3C//DTD SVG 1.1//EN" "http://www.w3.org/Graphics/SVG/1.1/DTD/svg11.dtd"><svg t="1529070424384" class="icon" style="" viewBox="0 0 1025 1024" version="1.1" xmlns="http://www.w3.org/2000/svg" p-id="5456" xmlns:xlink="http://www.w3.org/1999/xlink" width="200.1953125" height="200"><defs><style type="text/css"></style></defs><path d="M872.557745 160.060954l-720.137162 0c-66.384034 0-120.021155 53.626887-120.021155 119.878908l0 464.274803c0 66.249975 53.637121 119.881978 120.021155 119.881978l720.137162 0c66.136382 0 120.022178-53.632004 120.022178-119.881978L992.579923 279.939862C992.580946 213.687841 938.694127 160.060954 872.557745 160.060954zM928.565979 744.214665c0 30.808111-25.129512 55.875199-56.007211 55.875199l-720.137162 0c-30.881792 0-56.007211-25.066064-56.007211-55.875199L96.414395 279.939862c0-30.750803 25.126442-55.878269 56.007211-55.878269l720.137162 0c30.878722 0 56.007211 25.127466 56.007211 55.878269L928.565979 744.214665z" p-id="5457" fill="#ffffff"></path><path d="M833.235318 376.197683l-320.745131 206.758702-320.872027-206.758702c-14.881633-9.50083-34.633413-5.255953-44.258069 9.562232-9.504924 14.874469-5.256976 34.685604 9.624656 44.249883l338.190268 217.887691c5.248789 3.433357 11.315239 5.061515 17.315171 5.061515 6.003002 0 12.063312-1.628158 17.316195-5.061515l338.058255-217.887691c14.881633-9.564279 19.196098-29.375413 9.571442-44.249883C867.863614 370.883399 847.926606 366.696853 833.235318 376.197683z" p-id="5458" fill="#ffffff"></path></svg>