<?xml version="1.0" standalone="no"?><!DOCTYPE svg PUBLIC "-//W3C//DTD SVG 1.1//EN" "http://www.w3.org/Graphics/SVG/1.1/DTD/svg11.dtd"><svg t="1529070376351" class="icon" style="" viewBox="0 0 1024 1024" version="1.1" xmlns="http://www.w3.org/2000/svg" p-id="3899" xmlns:xlink="http://www.w3.org/1999/xlink" width="200" height="200"><defs><style type="text/css"></style></defs><path d="M514.553 814.817c-28.167 0-51.083 22.914-51.083 51.084 0 28.167 22.916 51.084 51.083 51.084 28.169 0 51.086-22.915 51.086-51.084-0.001-28.17-22.917-51.084-51.086-51.084z" p-id="3900" fill="#ffffff"></path><path d="M767.288 10.74h-505.468c-42.523 0-77.118 34.595-77.118 77.118v848.284c0 42.524 34.595 77.118 77.118 77.118h505.467c42.523 0 77.117-34.594 77.117-77.118v-848.284c0.001-42.523-34.593-77.118-77.116-77.118zM261.82 62.153h505.467c14.175 0 25.707 11.533 25.707 25.707v635.529h-556.879v-635.53c0-14.174 11.532-25.706 25.706-25.706zM767.288 961.846h-505.468c-14.174 0-25.707-11.531-25.707-25.706v-156.941h556.88v156.942c0.001 14.175-11.531 25.705-25.706 25.705z" p-id="3901" fill="#ffffff"></path></svg>