<?xml version="1.0" standalone="no"?><!DOCTYPE svg PUBLIC "-//W3C//DTD SVG 1.1//EN" "http://www.w3.org/Graphics/SVG/1.1/DTD/svg11.dtd"><svg t="1529072445587" class="icon" style="" viewBox="0 0 1024 1024" version="1.1" xmlns="http://www.w3.org/2000/svg" p-id="1154" xmlns:xlink="http://www.w3.org/1999/xlink" width="200" height="200"><defs><style type="text/css"></style></defs><path d="M263.68 386.56v-5.12c0-20.48 15.36-35.84 35.84-35.84h28.16c20.48 0 35.84 15.36 35.84 35.84v5.12c0 20.48 5.12 23.04 25.6 23.04H640c17.92 0 20.48-2.56 20.48-20.48v-7.68c0-20.48 15.36-35.84 35.84-35.84h28.16c20.48 0 35.84 15.36 35.84 35.84v7.68c0 17.92 5.12 20.48 23.04 20.48H921.6c17.92 0 23.04-5.12 23.04-23.04v-40.96c0-40.96-33.28-74.24-71.68-74.24H151.04c-38.4 0-71.68 33.28-71.68 74.24V384c0 20.48 5.12 25.6 28.16 25.6h130.56c20.48-2.56 25.6-5.12 25.6-23.04z m0 0" fill="#707070" p-id="1155"></path><path d="M760.32 483.84v7.68c0 20.48-15.36 35.84-35.84 35.84h-28.16c-20.48 0-35.84-15.36-35.84-35.84v-7.68c0-15.36-5.12-20.48-20.48-20.48h-248.32c-20.48 0-25.6 5.12-25.6 23.04v5.12c0 20.48-15.36 35.84-35.84 35.84h-28.16c-20.48 0-35.84-15.36-35.84-35.84V486.4c0-20.48-5.12-25.6-25.6-25.6H104.96c-23.04 0-28.16 5.12-28.16 28.16v366.08c0 40.96 33.28 74.24 71.68 74.24h724.48c38.4 0 71.68-33.28 71.68-74.24V483.84c0-15.36-7.68-23.04-23.04-23.04h-138.24c-17.92 2.56-23.04 5.12-23.04 23.04z m0 0" fill="#707070" p-id="1156"></path><path d="M340.48 460.8c0 20.48-12.8 35.84-28.16 35.84-15.36 0-25.6-15.36-25.6-35.84v-43.52c0-20.48 12.8-35.84 25.6-35.84 15.36 0 28.16 15.36 28.16 35.84V460.8z m0 0" fill="#707070" p-id="1157"></path><path d="M737.28 460.8c0 20.48-12.8 35.84-25.6 35.84-15.36 0-28.16-15.36-28.16-35.84v-43.52c0-20.48 12.8-35.84 28.16-35.84 15.36 0 25.6 15.36 25.6 35.84V460.8z m0 0" fill="#707070" p-id="1158"></path><path d="M360.96 230.4A161.28 161.28 0 0 1 512 125.44c69.12 0 128 43.52 151.04 107.52 0 0 5.12 20.48 33.28 20.48s28.16-20.48 28.16-20.48c-25.6-97.28-110.08-166.4-212.48-166.4-102.4 0-189.44 71.68-212.48 166.4 0 0-2.56 17.92 28.16 17.92 28.16-2.56 33.28-20.48 33.28-20.48z m0 0" fill="#707070" p-id="1159"></path></svg>