<?xml version="1.0" standalone="no"?><!DOCTYPE svg PUBLIC "-//W3C//DTD SVG 1.1//EN" "http://www.w3.org/Graphics/SVG/1.1/DTD/svg11.dtd"><svg t="1529070448350" class="icon" style="" viewBox="0 0 1024 1024" version="1.1" xmlns="http://www.w3.org/2000/svg" p-id="6354" xmlns:xlink="http://www.w3.org/1999/xlink" width="200" height="200"><defs><style type="text/css"></style></defs><path d="M1011.712 676.48 1009.045333 657.941333 1005.674667 639.829333 1002.965333 630.506667 1000.384 620.629333 996.906667 611.2 993.322667 600.746667 989.269333 590.826667 984.896 580.650667 976.981333 564.074667 970.048 549.44 963.050667 536.426667 956.992 524.224 949.952 513.109333 944.832 502.933333 933.952 487.722667 920.298667 467.498667 917.12 462.485333 916.074667 460.352 916.074667 458.666667 918.314667 451.84 921.493333 445.76 924.266667 433.749333 925.781333 427.52 925.781333 421.12 926.549333 415.957333 926.549333 410.773333 925.781333 404.821333 924.842667 399.936 922.837333 390.08 920.213333 380.501333 917.866667 371.690667 914.176 363.157333 909.866667 356.032 906.645333 349.312 902.976 342.933333 897.173333 333.504 895.018667 330.154667 894.4 327.232 891.733333 308.992 890.048 297.002667 888.064 282.090667 884.992 266.730667 880.213333 249.109333 877.546667 239.210667 875.370667 230.869333 872.384 221.12 868.992 210.773333 865.664 201.194667 861.376 190.890667 852.629333 170.965333 847.509333 161.536 841.216 150.72 835.285333 141.44 829.482667 130.965333 821.184 121.216 814.186667 111.808 805.674667 102.058667 796.949333 93.226667 788.16 84.693333 777.792 75.882667 772.330667 72.682667 767.168 68.266667 756.010667 60.501333 743.04 52.117333 729.834667 44.544 716.16 37.717333 701.205333 31.466667 687.168 25.536 672.618667 20.373333 656.661333 16.085333 642.090667 12.330667 626.496 9.002667 611.84 5.504 595.968 3.818667 580.437333 1.962667 564.949333 0 548.906667 0 533.504 0 518.570667 0 502.848 0.853333 488.064 2.837333 473.386667 4.842667 458.474667 7.253333 443.690667 10.005333 429.653333 13.333333 415.637333 17.749333 402.645333 22.144 389.653333 26.389333 376.554667 32.64 364.245333 37.653333 353.322667 43.733333 341.952 50.56 331.456 57.685333 321.088 65.770667 312.554667 73.216 299.2 85.525333 288.042667 96.96 277.44 108.032 267.669333 119.317333 258.517333 130.88 250.517333 142.144 242.752 153.386667 239.125333 158.4 235.776 164.48 228.48 175.125333 222.698667 185.792 217.536 195.818667 213.056 206.464 208.682667 216.192 205.013333 225.322667 201.685333 235.072 198.314667 244.053333 193.770667 260.330667 190.464 275.968 188.629333 289.045333 186.773333 300.309333 186.773333 308.992 186.773333 315.989333 186.773333 322.218667 183.637333 325.589333 180.693333 330.133333 178.432 334.229333 176.469333 338.645333 174.016 348.224 171.328 357.013333 170.410667 364.949333 169.770667 370.709333 169.770667 376.938667 163.541333 385.792 159.125333 394.602667 155.776 403.114667 153.322667 410.730667 151.402667 418.026667 149.546667 424.874667 149.546667 430.634667 149.546667 437.013333 149.546667 442.346667 150.613333 446.592 152.170667 454.357333 154.112 460.266667 150.592 462.869333 140.842667 469.994667 127.914667 481.536 120 488.362667 112.277333 495.082667 106.922667 500.416 102.528 505.130667 93.098667 515.008 84.138667 524.885333 77.162667 533.397333 68.757333 545.728 60.714667 556.8 52.842667 569.130667 46.144 580.544 40.597333 592.682667 34.688 603.925333 30.442667 615.018667 25.92 626.624 22.528 637.866667 19.264 649.365333 16.298667 659.456 14.656 670.250667 12.864 680.298667 11.349333 690.048 10.410667 708.992 10.410667 726.656 10.410667 734.592 11.370667 742.336 13.845333 755.562667 14.698667 761.344 16.341333 767.253333 18.346667 772.906667 20.224 776.874667 23.210667 784.213333 25.493333 785.685333 26.837333 788.757333 28.608 789.482667 29.717333 789.482667 30.485333 789.482667 38.272 788.8 46.165333 786.773333 52.864 784.213333 59.84 779.797333 66.176 775.701333 72 770.325333 78.250667 764.8 83.562667 758.997333 88.554667 752.426667 93.12 746.496 97.408 741.632 100.096 735.957333 105.301333 726.656 106.922667 722.88 107.861333 720.618667 108.352 718.016 109.568 715.882667 110.506667 715.434667 112.298667 714.581333 113.365333 714.581333 113.856 715.456 114.709333 715.456 115.605333 715.968 118.528 728.533333 121.685333 738.794667 125.952 749.418667 130.218667 758.997333 133.845333 768.576 139.392 776.938667 143.466667 785.749333 148.032 793.813333 153.322667 800.768 157.333333 807.509333 167.936 819.925333 177.258667 831.061333 186.176 839.744 195.008 847.466667 202.624 853.482667 214.016 863.381333 218.602667 865.578667 220.117333 867.690667 220.117333 868.8 219.008 869.674667 218.581333 869.674667 216.298667 870.421333 207.786667 871.04 199.829333 872.085333 193.130667 873.045333 186.133333 874.581333 180.053333 876.352 173.994667 878.186667 168.682667 880.981333 164.458667 883.456 159.125333 885.162667 155.84 887.914667 152.234667 890.048 148.373333 893.141333 143.509333 899.050667 141.674667 901.781333 139.434667 904.192 136.341333 910.378667 134.656 915.584 132.672 920.768 132.224 925.312 132.224 931.285333 132.224 933.866667 131.349333 938.090667 131.349333 942.4 130.261333 946.645333 130.261333 950.4 131.349333 954.496 132.224 958.165333 134.656 965.333333 136.341333 968.618667 138.496 971.989333 140.885333 975.274667 143.488 978.218667 146.965333 981.525333 149.568 984.298667 157.333333 989.909333 165.098667 994.688 174.016 998.954667 183.637333 1002.752 193.770667 1006.826667 205.034667 1009.408 216.32 1013.034667 228.501333 1015.466667 240.682667 1017.301333 253.141333 1019.157333 266.069333 1020.949333 291.498667 1023.552 317.781333 1024 341.952 1024 353.322667 1024 364.245333 1024 375.637333 1023.552 385.408 1022.464 394.837333 1021.674667 403.626667 1020.906667 417.792 1018.218667 427.968 1015.424 437.738667 1012.992 455.637333 1005.76 463.722667 1002.645333 471.466667 998.890667 484.224 991.893333 495.808 986.218667 504.298667 980.885333 510.528 975.253333 520.298667 976.341333 527.872 977.088 542.784 978.176 549.781333 978.176 555.690667 978.176 560.256 979.114667 564.885333 980.885333 572.16 983.509333 580.330667 986.218667 595.84 990.954667 611.712 996.608 627.157333 1000.96 642.730667 1004.032 658.645333 1008 675.093333 1010.24 690.709333 1012.010667 706.410667 1014.101333 721.045333 1015.424 736.704 1016.341333 751.701333 1016.341333 766.336 1016.341333 780.16 1016.341333 794.218667 1014.634667 807.914667 1014.037333 821.077333 1011.882667 833.216 1009.258667 845.312 1006.677333 857.066667 1003.925333 861.952 1002.581333 867.285333 1000.874667 877.461333 996.949333 886.464 992.874667 894.954667 988.608 902.869333 984.170667 909.781333 979.050667 912.618667 976.298667 915.968 972.501333 920.106667 967.509333 924.757333 961.216 926.4 958.058667 927.189333 955.413333 929.130667 952.170667 929.856 948.416 929.856 944.981333 930.816 941.504 929.856 936.298667 929.130667 931.925333 927.189333 926.784 925.717333 922.538667 922.688 917.333333 919.274667 912.661333 915.968 908.522667 911.381333 905.066667 902.058667 897.130667 891.605333 889.557333 881.066667 883.413333 869.952 877.248 844.608 865.066667 838.549333 861.44 836.906667 859.733333 835.925333 858.666667 848.085333 846.634667 853.333333 840.704 857.706667 835.2 866.282667 823.146667 874.282667 810.88 881.130667 799.957333 887.616 789.418667 896.192 768.448 902.869333 750.997333 907.349333 738.688 909.824 734.592 911.424 731.242667 914.133333 729.301333 915.2 729.301333 916.010667 729.898667 922.496 742.506667 928.341333 754.688 932.394667 761.493333 936.618667 767.424 940.8 774.741333 946.218667 781.866667 950.784 786.88 953.536 789.589333 956.202667 792.042667 958.698667 793.877333 961.088 795.541333 966.250667 798.101333 969.002667 799.04 970.794667 799.04 973.205333 799.04 976 798.101333 979.370667 796.437333 983.210667 794.858667 986.282667 792.106667 989.269333 788.949333 992.576 784.981333 995.157333 781.909333 998.144 777.024 1000.384 773.034667 1002.965333 767.424 1004.330667 762.688 1008.128 751.146667 1010.581333 738.368 1012.330667 724.224 1013.546667 715.989333 1013.546667 709.184 1013.546667 701.824 1013.546667 692.906667Z" p-id="6355" fill="#ffffff"></path></svg>