<?xml version="1.0" standalone="no"?><!DOCTYPE svg PUBLIC "-//W3C//DTD SVG 1.1//EN" "http://www.w3.org/Graphics/SVG/1.1/DTD/svg11.dtd"><svg t="1529072006686" class="icon" style="" viewBox="0 0 1024 1024" version="1.1" xmlns="http://www.w3.org/2000/svg" p-id="5302" xmlns:xlink="http://www.w3.org/1999/xlink" width="200" height="200"><defs><style type="text/css"></style></defs><path d="M726.3 741h-90c-10.5 0-19-8.5-19-19V344H406.5v378c0 10.5-8.5 19-19 19h-90c-10.5 0-19-8.5-19-19V344H187c-11.6 0-21-9.4-21-21 0-6.7 3.2-13 8.6-17l60.6-44.2c6.7-4.9 16.1-3.4 21 3.3 4.9 6.7 3.4 16.1-3.3 21L214.6 314h78.9c8.3 0 15 6.7 15 15v382h68V329c0-8.3 6.7-15 15-15h240.9c8.3 0 15 6.7 15 15v382h68V329c0-8.3 6.7-15 15-15h77.9L511.4 97.6l-136.1 99.2c-6.7 4.9-16.1 3.4-21-3.3s-3.4-16.1 3.3-21l142.6-104c6.7-4.9 15.7-4.9 22.4 0l330.6 241c8.5 6.2 10.3 18.1 4.2 26.5-3.6 4.9-9.3 7.8-15.4 7.8h-96.7v378c0 10.7-8.5 19.2-19 19.2zM284 259.9c-4.6 0-9.2-2.1-12.1-6.2-4.9-6.7-3.4-16.1 3.3-21l37.1-27.1c6.7-4.9 16.1-3.4 21 3.3 4.9 6.7 3.4 16.1-3.3 21L292.8 257c-2.6 2-5.7 2.9-8.8 2.9z" fill="#707070" p-id="5303"></path><path d="M461.9 241a49 49 0 1 0 98 0 49 49 0 1 0-98 0Z" fill="#707070" p-id="5304"></path><path d="M323.7 741.5H166.5V328h30v383.5h127.2z" fill="#707070" p-id="5305"></path><path d="M227 318h20v398.1h-20zM860.5 741.5H703.3v-30h127.2V328h30z" fill="#707070" p-id="5306"></path><path d="M800 328h-20v398.1h20z" fill="#707070" p-id="5307"></path><path d="M863 937H164c-27.6 0-50-22.4-50-50V764c0-27.6 22.4-50 50-50h699c27.6 0 50 22.4 50 50v123c0 27.6-22.4 50-50 50zM164 744c-11 0-20 9-20 20v123c0 11 9 20 20 20h699c11 0 20-9 20-20V764c0-11-9-20-20-20H164z" fill="#707070" p-id="5308"></path></svg>