<?xml version="1.0" standalone="no"?><!DOCTYPE svg PUBLIC "-//W3C//DTD SVG 1.1//EN" "http://www.w3.org/Graphics/SVG/1.1/DTD/svg11.dtd"><svg t="1529071082311" class="icon" style="" viewBox="0 0 1024 1024" version="1.1" xmlns="http://www.w3.org/2000/svg" p-id="2442" xmlns:xlink="http://www.w3.org/1999/xlink" width="200" height="200"><defs><style type="text/css"></style></defs><path d="M501.626745 182.440146c0.00921-13.941524-8.867972-26.830065-26.702152-26.750248-107.310028 0.483001-214.623126 0.421602-321.934177 0.12075-13.068643-0.036839-24.420179 11.403724-24.354687 24.723078 0.39295 79.616292 0.194428 159.236678 0.191358 238.855016-0.00307 79.042217-0.005117 158.083411-0.002046 237.125629 0.001023 17.294898 8.759501 26.2652 26.048259 26.439163 13.075807 0.132006 26.154683 0.075725 39.232536 0.017396 17.575284-0.078795 26.817786-9.423627 26.817786-27.018354 0.002047-102.889345-0.004093-205.777667 0.004093-308.667012 0.002047-27.885094-0.042979-55.770188 0.107447-83.655281 0.058328-10.887978 5.125741-15.541975 15.987113-15.546068 27.500331-0.010233 54.999638-0.084934 82.499969-0.095168 24.809035-0.00921 49.617048-0.045025 74.42506 0.086981 10.342556 0.055259 15.292288 5.129834 15.351639 15.079441 0.052189 8.845459 0.201591 17.690918 0.202615 26.536376 0.014326 119.043257 0.008186 238.086513 0.01228 357.12977 0 4.037966-0.051165 8.080026 0.094144 12.114922 0.512676 14.244422 9.197476 23.421432 23.3805 23.810289 15.563464 0.425695 31.150464 0.418532 46.719044 0.12689 12.456706-0.232291 21.969361-10.275018 21.967314-22.724561-0.027629-159.234631-0.157589-318.472332-0.048095-477.709009zM867.889523 207.117175c-60.772109 0.273223-121.547287 0.019443-182.321442-0.037863-2.00568-0.002047-4.01136 0-6.28924 0 0-13.591553 0.12075-26.27134-0.032746-38.948057-0.167822-13.879102-9.753131-23.529903-23.460318-23.659863-14.807241-0.13917-29.631878 0.345877-44.419675-0.211824-13.803377-0.520863-24.625864 10.945283-24.577768 25.056676 0.336668 96.739275 0.168846 193.479573 0.164752 290.218847v6.979972c-6.610558 0-12.174274-0.00307-17.73799 0.001023-18.055215 0.014326-27.16878 9.162684-27.168779 27.28953-0.002047 119.43416-0.001023 238.869343-0.001024 358.303502 0 1.539053-0.048095 3.079128 0.01842 4.615111 0.587378 13.56904 10.082636 23.00597 23.614837 23.01211 96.92961 0.040932 193.860243 0.01842 290.789852-0.030699 13.072737-0.00614 22.550599-10.06217 22.552646-23.704889 0.016373-121.163547-0.140193-242.328118 0.23229-363.490641 0.046049-15.139815-10.632151-26.237571-26.0237-26.137287-55.772234 0.36225-111.548562 0.14224-167.322843 0.14224h-5.955642c-0.328481-0.978281-0.545422-1.322112-0.545422-1.665943-0.033769-53.658084-0.040932-107.316168-0.096191-160.974251-0.00307-3.052522 0.740874-4.27435 4.282537-4.251837 23.838941 0.151449 47.679929-0.030699 71.519893-0.049119 38.465057-0.029676 76.930113 0.104377 115.39517-0.077771 15.514345-0.073678 24.690332-9.629311 24.668843-24.798803-0.019443-13.462616-0.600681-26.957978 0.136099-40.380686 0.951675-17.340947-11.370978-27.272133-27.422559-27.199478z m-95.467305 351.777878c8.710382 0.019443 14.282285 5.671163 14.747889 14.319124 0.134053 2.493797 0.150426 4.995781 0.151449 7.493671 0.025583 62.470797 0.046049 124.941594 0.055259 187.413414 0.002047 14.167674-5.211698 19.252483-19.471471 19.247366-39.020712-0.01535-78.040401 0.004093-117.061112 0.020466-10.500145 0.005117-16.463973-5.754051-16.482393-16.308431-0.058328-33.062-0.021489-66.122977-0.02149-99.184976 0.005117-32.484855-0.00307-64.969711 0.00921-97.454566 0.004093-9.404184 5.777587-15.513322 15.245216-15.536858 40.942481-0.101307 81.884962-0.103354 122.827443-0.00921z" p-id="2443" fill="#ffffff"></path><path d="M501.513158 797.448194c-0.039909-3.131317-0.998747-6.395664-2.174526-9.342785-4.069689-10.203386-12.967336-13.972223-22.735817-16.445554-38.220487-9.677407-68.762083-30.395264-90.632183-63.395866-15.010879-22.649859-24.531719-47.612391-24.660656-74.757634-0.530073-111.745037-0.217964-223.494167-0.216941-335.241251 0-1.154289 0.051165-2.312672-0.027629-3.460821-0.370437-5.380544-3.713578-9.203616-9.05626-9.242502-24.232914-0.174985-48.467875-0.229221-72.699766-0.038886-6.716982 0.053212-9.66308 3.603061-9.758248 10.272971-0.276293 19.403932-0.732687 38.806841-0.750083 58.210773-0.080841 89.243557-0.306992 178.48916 0.140193 267.730671 0.124843 24.88476-4.200672 48.359404-15.545045 70.449515-15.389502 29.968545-37.953404 52.949956-68.543095 67.220985-11.863189 5.53404-24.727171 8.947789-37.195134 13.150507-11.656481 3.928472-18.814508 13.563924-18.826788 25.838482-0.01535 15.578814 0.197498 31.16172-0.058328 46.736441-0.275269 16.782222 11.650341 25.284873 26.864858 23.777542 12.718673-1.25969 25.495674-3.248997 37.873585-6.3885 49.300846-12.507872 89.277326-39.517015 121.336486-79.900771 1.049912 1.163499 1.995447 2.067079 2.77623 3.097547 15.09479 19.907399 33.567513 36.145222 54.456263 49.655934 31.701003 20.502963 66.50467 32.123628 104.122429 34.748408 14.939247 1.042749 25.52535-8.1711 25.429159-23.053042-0.103354-16.540721 0.093121-33.083489-0.118704-49.622164z" p-id="2444" fill="#ffffff"></path></svg>