<?xml version="1.0" standalone="no"?><!DOCTYPE svg PUBLIC "-//W3C//DTD SVG 1.1//EN" "http://www.w3.org/Graphics/SVG/1.1/DTD/svg11.dtd"><svg t="1529072103151" class="icon" style="" viewBox="0 0 1024 1024" version="1.1" xmlns="http://www.w3.org/2000/svg" p-id="6126" xmlns:xlink="http://www.w3.org/1999/xlink" width="200" height="200"><defs><style type="text/css"></style></defs><path d="M512 65.36266c-246.283196 0-446.63734 200.354144-446.63734 446.63734 0 246.283196 200.354144 446.63734 446.63734 446.63734 246.283196 0 446.63734-200.353121 446.63734-446.63734C958.636317 265.716804 758.283196 65.36266 512 65.36266zM512 884.19693c-205.230198 0-372.19693-166.968779-372.19693-372.19693 0-205.230198 166.967756-372.19693 372.19693-372.19693 205.229175 0 372.19693 166.967756 372.19693 372.19693C884.19693 717.229175 717.229175 884.19693 512 884.19693zM684.997076 621.463064 530.608823 532.172435 530.608823 288.681842c0-20.544919-16.675798-37.219693-37.219693-37.219693-20.544919 0-37.219693 16.674775-37.219693 37.219693l0 260.538875c0 13.808494 17.157775 25.384134 28.324092 31.784914 3.090385 4.65195 11.57564 8.859785 16.749476 11.837606l153.530722 93.049233c17.792225 10.272971 37.072337 4.168949 47.344285-13.623275C712.392006 654.475945 702.82614 631.736035 684.997076 621.463064z" p-id="6127" fill="#707070"></path></svg>