<?xml version="1.0" standalone="no"?><!DOCTYPE svg PUBLIC "-//W3C//DTD SVG 1.1//EN" "http://www.w3.org/Graphics/SVG/1.1/DTD/svg11.dtd"><svg t="1529071845970" class="icon" style="" viewBox="0 0 1024 1024" version="1.1" xmlns="http://www.w3.org/2000/svg" p-id="3412" xmlns:xlink="http://www.w3.org/1999/xlink" width="200" height="200"><defs><style type="text/css"></style></defs><path d="M646.783241 585.967642c-2.816139-1.692548-6.117324-12.115945-0.162706-33.750685 63.535035-69.093635 102.756315-168.046321 102.756315-260.531711 0-147.078777-101.857852-250.633271-241.774509-250.633271-139.604548 0-237.120512 102.716406-237.120512 249.799276 0 93.777827 39.620369 193.46627 103.780645 262.179234 6.438643 21.595854-1.955538 29.345352-7.266497 31.767518C303.359634 607.816253 64.520991 691.963745 64.520991 808.358685l0 152.345734 893.965411 0 0-34.401508 0-34.421974L958.486402 788.668227C927.552879 681.96195 701.591521 603.992157 646.783241 585.967642L646.783241 585.967642zM128.682289 896.54312l0-83.522252c0-43.99091 132.965338-116.922966 261.836427-163.519214 5.302773-1.962701 32.556487-13.283538 46.866401-44.636616 7.600095-16.644075 13.592576-44.419675-0.87902-82.433454l-2.549056-6.683213-5.030573-5.095042c-54.450123-55.642275-89.621157-141.897777-89.621157-219.806171 0-133.561925 90.684372-180.975794 168.297031-180.975794 77.861322 0 173.60185 48.475038 173.60185 182.042079 0 77.134775-35.1915 163.226548-89.639576 219.304751 0 0-23.081695 32.541137-22.765493 55.952336 0.207731 15.409968 8.854669 34.796504 15.642259 48.14451 12.785188 25.207102 33.775244 33.621748 39.723723 35.58445 119.408577 39.517015 256.667707 92.234681 270.158976 138.707109l0 106.933451L128.682289 896.54005 128.682289 896.54312zM128.682289 896.54312" p-id="3413" fill="#707070"></path></svg>